inDegrees=yes
name=ik_S52_A07_T02
DataType=double
version=3
OpenSimVersion=4.3-2021-08-27-4bc7ad9
endheader
time	pelvis_tilt	pelvis_list	pelvis_rotation	pelvis_tx	pelvis_ty	pelvis_tz	hip_flexion_r	hip_adduction_r	hip_rotation_r	knee_angle_r	knee_angle_r_beta	ankle_angle_r	subtalar_angle_r	mtp_angle_r	hip_flexion_l	hip_adduction_l	hip_rotation_l	knee_angle_l	knee_angle_l_beta	ankle_angle_l	subtalar_angle_l	mtp_angle_l	lumbar_extension	lumbar_bending	lumbar_rotation	arm_flex_r	arm_add_r	arm_rot_r	elbow_flex_r	pro_sup_r	wrist_flex_r	wrist_dev_r	arm_flex_l	arm_add_l	arm_rot_l	elbow_flex_l	pro_sup_l	wrist_flex_l	wrist_dev_l
14.59999999999978	-4.007989928362606	-1.082740835348402	17.97724070412225	0	0.9399999999999999	0	37.37278290256526	-11.57803654765303	-10.26191484006616	51.91843977721698	0.9061477166108276	0	0	0	37.37278290256526	-11.57803654765303	-10.26191484006616	51.91843977721698	0.9061477166108276	0	0	0	-1.37598875538558	-2.441276124235862	2.672492557490108	63.15364587019393	-17.97719376971127	-1.358276975242937	96.45453162958839	99.99795166695174	0	0	25.41838163275222	-10.09965348086261	-13.67260777763303	46.08242664710961	120.9799215891155	0	0
14.61999999999978	-4.02391663204742	-1.093451284842999	17.98031573540734	0	0.9399999999999999	0	37.37670778171303	-11.57525382604205	-10.26161796379492	51.91950358335748	0.9061662835305823	0	0	0	37.37670778171303	-11.57525382604205	-10.26161796379492	51.91950358335748	0.9061662835305823	0	0	0	-1.39614163953303	-2.443819572007648	2.672497209590363	63.01887767263435	-17.86221244171328	-1.2049835760709	93.27609097683742	99.11848267421115	0	0	25.4559039323338	-10.09669750185226	-13.67732550854063	46.079872220989	120.9687244578608	0	0
14.63999999999978	-4.011455368461271	-1.095612419492862	17.98855332287767	0	0.9399999999999999	0	37.38104317356701	-11.57217682357161	-10.26128974315554	51.92067626145021	0.9061867506243664	0	0	0	37.38104317356701	-11.57217682357161	-10.26128974315554	51.92067626145021	0.9061867506243664	0	0	0	-1.386422490173677	-2.44834900951647	2.670093688772747	62.82702204831436	-17.75758198796408	-1.155013158897069	91.57077313285194	98.87442555558738	0	0	25.45122487435381	-10.08699916942563	-13.70062903302061	46.0568901694046	120.9919776242941	0	0
14.65999999999978	-4.000585551388624	-1.101402214211184	18.01747933858058	0	0.9399999999999999	0	37.38487855357708	-11.56946567061402	-10.2610000831598	51.92171666507343	0.9062049090931412	0	0	0	37.38487855357708	-11.56946567061402	-10.2610000831598	51.92171666507343	0.9062049090931412	0	0	0	-1.379394617883437	-2.455610906080579	2.662485310550304	62.68231089960923	-17.64260270942086	-1.104784419193998	89.78875936886234	98.5772991859196	0	0	25.45013954141747	-10.08834055018857	-13.67292648429464	46.05688561939738	120.9631408243604	0	0
14.67999999999978	-4.01332305949897	-1.112381592908887	18.0580519651084	0	0.9399999999999999	0	37.3892118389046	-11.56639864455923	-10.26067247258994	51.9228893758552	0.9062253767574567	0	0	0	37.3892118389046	-11.56639864455923	-10.26067247258994	51.9228893758552	0.9062253767574567	0	0	0	-1.396863771770863	-2.460382595818157	2.632694515372997	62.58279368399096	-17.48306690734361	-1.053073642939206	87.86245566904236	98.41398689914284	0	0	25.50262056546969	-10.06641048914699	-13.71984290612326	46.05418073254325	120.9351620093109	0	0
14.69999999999978	-4.021259210053327	-1.130430921507664	18.07690021304584	0	0.9399999999999999	0	37.39120709089998	-11.56498529945909	-10.26052151400619	51.92342836302436	0.9062347838581846	0	0	0	37.39120709089998	-11.56498529945909	-10.26052151400619	51.92342836302436	0.9062347838581846	0	0	0	-1.410510245593758	-2.474645951788477	2.634410629017504	62.43676434163414	-17.47722789221844	-1.110057854426156	87.98369316708217	98.48096295681479	0	0	25.5209742792305	-10.07369411633671	-13.73022934778014	46.04723642082079	120.9853959997679	0	0
14.71999999999978	-4.01761036733135	-1.147005229563554	18.06288187473804	0	0.9399999999999999	0	37.39433179385718	-11.56278703760912	-10.26028613863179	51.92427766085624	0.906249606901681	0	0	0	37.39433179385718	-11.56278703760912	-10.26028613863179	51.92427766085624	0.906249606901681	0	0	0	-1.412822603030042	-2.491201262493456	2.661345556410925	62.24892350065347	-17.38098071773013	-1.148527397168793	86.11409149681113	98.0688555960725	0	0	25.52682515601666	-10.09543426486813	-13.70466733396948	46.04843076963275	120.987904720342	0	0
14.73999999999977	-4.030725895921162	-1.142308968864414	18.05693145493414	0	0.9399999999999999	0	37.40036937202638	-11.55851891152721	-10.25982978799927	51.92590904150292	0.9062780798653188	0	0	0	37.40036937202638	-11.55851891152721	-10.25982978799927	51.92590904150292	0.9062780798653188	0	0	0	-1.425935116170213	-2.481104148619863	2.679206067014721	62.09841836805442	-17.03067209811774	-1.099870664398947	81.75676718884777	97.71611531737973	0	0	25.55837324468658	-10.07424803167823	-13.70976732494557	46.03915959432649	120.9944177483166	0	0
14.75999999999977	-4.043874401069848	-1.147076159799712	18.07063256862948	0	0.9399999999999999	0	37.40095357589045	-11.55804505776041	-10.25978510658702	51.92607560233518	0.9062809869002466	0	0	0	37.40095357589045	-11.55804505776041	-10.25978510658702	51.92607560233518	0.9062809869002466	0	0	0	-1.440084654374417	-2.481401107782887	2.679469086361236	62.06743644728868	-16.98613251344552	-1.137263111514023	81.76930932462254	97.74113492407616	0	0	25.57849935196865	-10.0408407785239	-13.69314741231509	46.03726046755437	121.0052282011465	0	0
14.77999999999977	-4.05778327721602	-1.169642153194911	18.08952431945664	0	0.9399999999999999	0	37.40590497372717	-11.55455695965529	-10.25941158122593	51.92741585263084	0.9063043786807068	0	0	0	37.40590497372717	-11.55455695965529	-10.25941158122593	51.92741585263084	0.9063043786807068	0	0	0	-1.461923210863942	-2.497300095221185	2.685156598508466	61.95829746711182	-16.70487732785302	-1.235144235451346	79.56856045701809	97.849495314438	0	0	25.63929215521118	-10.05503853562279	-13.64612823391781	46.04947457109265	120.9978643203027	0	0
14.79999999999977	-4.072167268971525	-1.186215345354177	18.07649715255422	0	0.9399999999999999	0	37.41171434991045	-11.55046684419898	-10.2589733708581	51.92898693779866	0.9063317992897144	0	0	0	37.41171434991045	-11.55046684419898	-10.2589733708581	51.92898693779866	0.9063317992897144	0	0	0	-1.482261937895413	-2.507585138464267	2.724999758021878	61.80697745437283	-16.29763413772678	-1.312653836419707	75.120789944384	97.60991491498153	0	0	25.69486801538925	-10.05766475938167	-13.58122045924894	46.02747294818676	120.9079183294964	0	0
14.81999999999977	-4.087534899467149	-1.197134582877305	18.03028858644557	0	0.9399999999999999	0	37.41657636436187	-11.54705593304515	-10.25860737861889	51.93030458178602	0.906354796515663	0	0	0	37.41657636436187	-11.54705593304515	-10.25860737861889	51.93030458178602	0.906354796515663	0	0	0	-1.500306148037515	-2.513617095299232	2.793342310347644	61.73961307889225	-16.12677992849574	-1.507948156779345	72.89452385611855	97.54688459018027	0	0	25.73382266539776	-10.05459817417009	-13.55859587765115	46.03025206920019	120.9066411433735	0	0
14.83999999999977	-4.1058715465759	-1.212085931299533	17.95452730913743	0	0.9399999999999999	0	37.42179354666908	-11.54340595954608	-10.2582152518289	51.93172030309265	0.9063795055137543	0	0	0	37.42179354666908	-11.54340595954608	-10.2582152518289	51.93172030309265	0.9063795055137543	0	0	0	-1.52205264691412	-2.522877428464237	2.878460103987578	61.7614706804986	-15.93382732054414	-1.71073553680699	70.64390370199334	97.62949250208756	0	0	25.78741376247987	-10.06156689149961	-13.54241842551521	46.02879395838391	120.9074489709622	0	0
14.85999999999977	-4.112875411473413	-1.214959338124444	17.97819834498224	0	0.9399999999999999	0	37.4262078681243	-11.54064886594922	-10.25790414338498	51.9329368819044	0.9064007388196295	0	0	0	37.4262078681243	-11.54064886594922	-10.25790414338498	51.9329368819044	0.9064007388196295	0	0	0	-1.530732938538293	-2.522380924562855	2.877760777693337	61.79678779919119	-15.87752004638297	-1.731043532712664	70.62067566312734	97.66424874916136	0	0	25.78142812653307	-10.03645169315515	-13.53697890739994	46.02847313472432	120.8774865435227	0	0
14.87999999999977	-4.135669510453254	-1.22842016115198	18.00350734674477	0	0.9399999999999999	0	37.43026901237501	-11.53783597928977	-10.25760078094036	51.93404730165775	0.9064201193004044	0	0	0	37.43026901237501	-11.53783597928977	-10.25760078094036	51.93404730165775	0.9064201193004044	0	0	0	-1.558657628668441	-2.527116857947849	2.864288639224204	61.86738861244753	-15.4890653835569	-1.914550670065382	68.12654169365892	98.12371461809934	0	0	25.83692972701114	-10.05113190531186	-13.51881660451003	46.04372045880823	120.8425426108159	0	0
14.89999999999977	-4.137271932732002	-1.232968831981694	18.03688213612254	0	0.9399999999999999	0	37.43424797740512	-11.53504196889349	-10.25730080188834	51.9351196005288	0.9064388344462697	0	0	0	37.43424797740512	-11.53504196889349	-10.25730080188834	51.9351196005288	0.9064388344462697	0	0	0	-1.562861718279639	-2.529744533303293	2.856497374770458	61.95122284964055	-15.21272970338191	-2.189362527706454	67.86312919086437	98.56330941632413	0	0	25.86046414560731	-10.04771700689424	-13.47467098741677	46.00184303159562	120.8384323380759	0	0
14.91999999999977	-4.154376130012024	-1.249961687941561	18.06261355572814	0	0.9399999999999999	0	37.43690933645269	-11.53318111788548	-10.25710068617753	51.93583922661623	0.9064513942908786	0	0	0	37.43690933645269	-11.53318111788548	-10.25710068617753	51.93583922661623	0.9064513942908786	0	0	0	-1.584946851621312	-2.540271943376611	2.865796349094988	62.10375145867272	-15.05407584443142	-2.466428788037537	67.65964230223163	98.79475889251455	0	0	25.91606390016417	-10.05831120141586	-13.42565287721602	46.00286831425151	120.8556510768549	0	0
14.93999999999977	-4.160568234276129	-1.258081371802048	18.06855516745101	0	0.9399999999999999	0	37.44917584883756	-11.52904129072258	-10.25644316413464	51.93948022334117	0.9065149416717831	0	0	0	37.44917584883756	-11.52904129072258	-10.25644316413464	51.93948022334117	0.9065149416717831	0	0	0	-1.596568884586053	-2.543166285351024	2.873312277343493	62.11978541612898	-15.05909259439539	-2.49447191893777	67.65566225093156	98.79949269373093	0	0	25.94827875497892	-10.03068786483422	-13.4019344347496	46.00390762350678	120.824394510642	0	0
14.95999999999977	-4.170538099198271	-1.269101938790447	17.98803412176586	0	0.9399999999999999	0	37.46021645905881	-11.52137302605751	-10.25561603761584	51.94246931879534	0.9065671112291148	0	0	0	37.46021645905881	-11.52137302605751	-10.25561603761584	51.94246931879534	0.9065671112291148	0	0	0	-1.610550699870503	-2.548281288577118	2.995263840196043	62.19369969717997	-14.00784615873589	-3.114717504184747	58.72365884108687	100.082617340912	0	0	26.00317248749649	-10.02392192080213	-13.35358588476282	45.98051525811803	120.8189828977461	0	0
14.97999999999977	-4.176577274612232	-1.275413598609843	17.94926484702119	0	0.9399999999999999	0	37.46564552705907	-11.51761495078081	-10.25521025196677	51.9439449720989	0.9065928662378799	0	0	0	37.46564552705907	-11.51761495078081	-10.25521025196677	51.9439449720989	0.9065928662378799	0	0	0	-1.618520612422713	-2.552575484962196	3.041233074242733	62.30968272912586	-13.53609883548876	-3.646922037357796	56.36391887542761	100.9106636189493	0	0	26.01798265376887	-10.02345572076527	-13.33881415361081	45.9828848758359	120.7892144949796	0	0
